
<svg xmlns="http://www.w3.org/2000/svg" version="1.1" xmlns:xlink="http://www.w3.org/1999/xlink" preserveAspectRatio="none" x="0px" y="0px" width="37px" height="19px" viewBox="0 0 37 19">
<defs>
<radialGradient id="Gradient_1" gradientUnits="userSpaceOnUse" cx="0" cy="0" r="5.267856537530231" fx="0" fy="0" gradientTransform="matrix( 0.9989831656401291, 0.04508475094337875, -0.04271186931477987, 0.9752543493541403, 20.2,6.65) " spreadMethod="pad">
<stop  offset="56.470588235294116%" stop-color="#02A9D2"/>

<stop  offset="81.56862745098039%" stop-color="#FFFFFF"/>
</radialGradient>

<radialGradient id="Gradient_2" gradientUnits="userSpaceOnUse" cx="0" cy="0" r="16.1" fx="0" fy="0" gradientTransform="matrix( 0.9999999999999999, 0, 0, 0.9999999999999999, 11.35,11.35) " spreadMethod="pad">
<stop  offset="39.6078431372549%" stop-color="#F9C931" stop-opacity="0"/>

<stop  offset="49.411764705882355%" stop-color="#F9C931"/>

<stop  offset="63.529411764705884%" stop-color="#F9C931"/>

<stop  offset="72.94117647058823%" stop-color="#F9C931" stop-opacity="0"/>
</radialGradient>

<g id="xatsat_0_Layer1_0_FILL">
<path fill="url(#Gradient_1)" stroke="none" d="
M 23.6 3.9
Q 23.55 3.85 23.35 3.6 22.4 2.75 21.15 2.7 19.65 2.6 18.45 3.65 17.35 4.65 17.25 6.2 17.25 6.4 17.2 6.7 17.5 8 18.25 8.7 19.3 9.85 20.9 9.9 22.35 9.95 23.4 9 24.55 7.95 24.7 6.55 24.8 5.05 23.6 3.9 Z"/>
</g>

<g id="xring_0_Layer0_0_FILL">
<path fill="url(#Gradient_2)" stroke="none" d="
M 22.75 22.75
L 22.75 0 16 0 16.5 11.85 11.35 10.5 6.4 10.3 6.55 0 0 0 0 22.75 22.75 22.75 Z"/>
</g>
</defs>

<g transform="matrix( 2.2469940185546875, 0, 0, 2.2485198974609375, -28.6,-4.85) ">
<g transform="matrix( 1, 0, 0, 1, 0,0) ">
<use xlink:href="#xatsat_0_Layer1_0_FILL"/>
</g>

<g transform="matrix( 0.686981201171875, -0.266326904296875, 0.0410919189453125, 0.10601806640625, 12.65,8.2) ">
<g transform="matrix( 1, 0, 0, 1, 0,0) ">
<use xlink:href="#xring_0_Layer0_0_FILL"/>
</g>
</g>
</g>
</svg>
